HIERARCHY
ROOT Hip
{
  OFFSET 0.0 0.0 0.0
  CHANNELS 6 Xposition Yposition Zposition Xrotation Yrotation Zrotation
  JOINT LowerSpine
  {
    OFFSET 0.0 0.061367 -0.03653
    CHANNELS 3 Xrotation Yrotation Zrotation
    JOINT MiddleSpine
    {
      OFFSET 0.0 0.056002 0.002633
      CHANNELS 3 Xrotation Yrotation Zrotation
      JOINT Chest
      {
        OFFSET 0.0 0.069296 -0.013882
        CHANNELS 3 Xrotation Yrotation Zrotation
        JOINT Neck
        {
          OFFSET 0.0 0.156156 -0.002923
          CHANNELS 3 Xrotation Yrotation Zrotation
          JOINT Head
          {
            OFFSET 0.0 0.088183 0.023986
            CHANNELS 3 Xrotation Yrotation Zrotation
            End Site
            {
              OFFSET 1e-06 0.123215 0.003678
            }
          }
        }
        JOINT LClavicle
        {
          OFFSET 0.014189 0.150698 0.046467
          CHANNELS 3 Xrotation Yrotation Zrotation
          JOINT LShoulder
          {
            OFFSET 0.082893 0.021616 -0.034976
            CHANNELS 3 Xrotation Yrotation Zrotation
            JOINT LForearm
            {
              OFFSET 0.195645 -0.000695 -0.001695
              CHANNELS 3 Xrotation Yrotation Zrotation
              JOINT LHand
              {
                OFFSET 0.163209 0.000474 -0.000977
                CHANNELS 3 Xrotation Yrotation Zrotation
                End Site
                {
                  OFFSET 0.0 0.006864 0.0
                }
              }
            }
          }
        }
        JOINT RClavicle
        {
          OFFSET -0.014189 0.150698 0.046467
          CHANNELS 3 Xrotation Yrotation Zrotation
          JOINT RShoulder
          {
            OFFSET -0.082908 0.021619 -0.034982
            CHANNELS 3 Xrotation Yrotation Zrotation
            JOINT RForearm
            {
              OFFSET -0.195645 -0.000695 -0.001695
              CHANNELS 3 Xrotation Yrotation Zrotation
              JOINT RHand
              {
                OFFSET -0.163209 0.000474 -0.000977
                CHANNELS 3 Xrotation Yrotation Zrotation
                End Site
                {
                  OFFSET 0.0 0.006864 0.0
                }
              }
            }
          }
        }
      }
    }
  }
  JOINT RThigh
  {
    OFFSET -0.072558 0.02774 -0.005953
    CHANNELS 3 Xrotation Yrotation Zrotation
    JOINT RShin
    {
      OFFSET -0.005253 -0.285537 0.0
      CHANNELS 3 Xrotation Yrotation Zrotation
      JOINT RFoot
      {
        OFFSET 0.0 -0.28038 0.0
        CHANNELS 3 Xrotation Yrotation Zrotation
        JOINT RToe
        {
          OFFSET 0.0 -0.030816 0.064441
          CHANNELS 3 Xrotation Yrotation Zrotation
          End Site
          {
            OFFSET 0.0 0.0 0.043231
          }
        }
      }
    }
  }
  JOINT LThigh
  {
    OFFSET 0.072557 0.027741 -0.005953
    CHANNELS 3 Xrotation Yrotation Zrotation
    JOINT LShin
    {
      OFFSET 0.005253 -0.285539 0.0
      CHANNELS 3 Xrotation Yrotation Zrotation
      JOINT LFoot
      {
        OFFSET 0.0 -0.28038 0.0
        CHANNELS 3 Xrotation Yrotation Zrotation
        JOINT LToe
        {
          OFFSET 0.0 -0.030816 0.064441
          CHANNELS 3 Xrotation Yrotation Zrotation
          End Site
          {
            OFFSET 0.0 0.0 0.043231
          }
        }
      }
    }
  }
}
MOTION
Frames: 5
Frame Time: 0.03333333333333333
-0.038198 0.56877 0.012338 6.482293 3.897942 21.374857 -9.709044 16.877205 -17.855738 3.287475 1.148424 -28.587383 -1.021167 -13.357688 17.988796 2.439037 -25.999325 -6.273594 -6.540468 27.061104 5.923255 -12.639974 24.647638 -9.887585 16.446024 -11.892381 -35.286556 -8.694753 -32.503738 -30.973652 -14.288568 -17.543034 15.236619 15.754234 7.298152 34.368385 11.282264 32.870113 35.446445 -6.068031 33.309841 27.514042 23.647043 7.592021 12.445682 -9.447025 2.234568 -24.812113 3.637726 18.662588 18.912216 -16.562723 -6.504914 22.5371 6.548624 -22.723179 -14.504595 -1.09494 16.394239 -21.882532 -3.378114 25.65604 17.05938 11.599437 6.681184 -22.623564 -13.947816 23.031122 11.729203 
-0.035444 0.56921 0.013842 6.299439 4.540198 21.143269 -9.778223 16.944715 -17.777527 3.434196 1.185855 -28.598524 -0.799428 -13.058351 18.093573 2.286758 -26.044117 -6.26949 -6.418999 27.103544 5.888742 -12.669739 24.64809 -9.881384 16.403698 -11.894465 -35.246483 -8.67156 -32.325523 -30.965158 -14.310503 -17.527208 15.272276 15.687087 7.472998 34.340054 11.276063 33.042828 35.347626 -6.274111 33.528831 27.67174 23.689693 7.582129 12.408937 -9.060617 2.656909 -24.998089 3.550691 19.183832 18.745531 -16.634344 -6.60255 22.489241 6.545112 -22.746256 -14.487495 -0.695418 16.477695 -22.075611 -3.662711 25.66959 17.164497 11.576869 6.530834 -22.592609 -14.016215 23.025768 11.731805 
-0.033144 0.5695 0.015056 6.179045 5.151939 20.921566 -9.862315 17.013468 -17.686764 3.596366 1.235239 -28.607962 -0.590403 -12.794397 18.199238 2.118016 -26.088358 -6.284628 -6.3087 27.143486 5.867704 -12.680014 24.655079 -9.876631 16.38084 -11.958972 -35.242657 -8.624091 -32.105114 -30.914885 -14.33314 -17.517181 15.306404 15.638157 7.598587 34.326984 11.242682 33.254711 35.235661 -6.425019 33.617928 27.774424 23.72377 7.57238 12.389493 -8.74138 3.063211 -25.124752 3.497772 19.66647 18.595594 -16.726059 -6.692182 22.433559 6.526837 -22.771275 -14.485556 -0.419612 16.529318 -22.204172 -3.877887 25.676746 17.26133 11.539083 6.416502 -22.568821 -14.06348 23.026772 11.738748 
-0.031185 0.569653 0.015673 6.103589 5.6836 20.70381 -9.907676 17.062679 -17.615007 3.733401 1.284996 -28.607441 -0.372203 -12.558308 18.268753 2.016045 -26.106735 -6.288941 -6.212547 27.159372 5.848717 -12.708209 24.650091 -9.852698 16.381021 -12.086246 -35.254993 -8.563122 -31.870876 -30.84145 -14.353115 -17.497469 15.323069 15.587254 7.694579 34.293579 11.129956 33.458118 35.157848 -6.543066 33.60133 27.827364 23.741701 7.556791 12.366615 -8.52767 3.480577 -25.205334 3.560787 20.081158 18.466146 -16.857882 -6.751045 22.367859 6.493936 -22.78355 -14.482101 -0.286275 16.510031 -22.260557 -4.004932 25.639793 17.325518 11.441723 6.366799 -22.54047 -14.09411 23.014717 11.734562 
-0.029572 0.569724 0.015684 6.059165 6.134232 20.484653 -9.944289 17.075228 -17.538799 3.857363 1.336304 -28.580879 -0.19756 -12.359051 18.309502 1.933004 -26.094507 -6.271315 -6.114885 27.154289 5.832362 -12.728449 24.626368 -9.827623 16.420736 -12.285192 -35.28878 -8.434505 -31.602709 -30.705505 -14.36127 -17.469601 15.326434 15.53172 7.780905 34.238686 10.992291 33.657501 35.129055 -6.609326 33.488049 27.814077 23.742334 7.535778 12.340255 -8.410315 3.866751 -25.223116 3.693034 20.41403 18.338425 -16.988518 -6.810263 22.284464 6.456966 -22.778208 -14.474716 -0.286801 16.413229 -22.249844 -4.033977 25.545208 17.346155 11.315763 6.343687 -22.511263 -14.113503 22.988131 11.7211 
